<svg width="400" height="400" viewBox="0 0 400 400" xmlns="http://www.w3.org/2000/svg">
  <defs>
    <linearGradient id="wordGrad" x1="0%" y1="0%" x2="100%" y2="100%">
      <stop offset="0%" stop-color="#f70178"/>
      <stop offset="100%" stop-color="#630db2"/>
    </linearGradient>
    <linearGradient id="wordBg" x1="0%" y1="0%" x2="100%" y2="100%">
      <stop offset="0%" stop-color="#fdf2f8"/>
      <stop offset="100%" stop-color="#f3e8ff"/>
    </linearGradient>
  </defs>

  <circle cx="200" cy="200" r="190" fill="url(#wordBg)"/>

  <ellipse cx="200" cy="330" rx="110" ry="14" fill="#630db2" opacity="0.08"/>

  <g transform="translate(105,70)">
    <rect x="8" y="8" width="175" height="235" rx="14" fill="#00000018"/>
    <rect x="0" y="0" width="175" height="235" rx="14" fill="#ffffff" stroke="#e9d5ff" stroke-width="2"/>

    <rect x="0" y="0" width="175" height="52" rx="14" fill="url(#wordGrad)"/>
    <rect x="0" y="38" width="175" height="14" fill="url(#wordGrad)"/>

    <circle cx="26" cy="26" r="14" fill="#ffffff"/>
    <text x="26" y="32" text-anchor="middle" font-family="Georgia, serif" font-size="16" font-weight="700" fill="#630db2">W</text>

    <rect x="20" y="80" width="135" height="10" rx="5" fill="#e9d5ff"/>
    <rect x="20" y="102" width="135" height="8" rx="4" fill="#f3e8ff"/>
    <rect x="20" y="118" width="110" height="8" rx="4" fill="#f3e8ff"/>
    <rect x="20" y="134" width="135" height="8" rx="4" fill="#f3e8ff"/>
    <rect x="20" y="150" width="90" height="8" rx="4" fill="#f3e8ff"/>

    <rect x="20" y="176" width="135" height="8" rx="4" fill="#f3e8ff"/>
    <rect x="20" y="192" width="120" height="8" rx="4" fill="#f3e8ff"/>
    <rect x="20" y="208" width="135" height="8" rx="4" fill="#f3e8ff"/>
  </g>

  <g transform="translate(255,225)">
    <circle cx="0" cy="0" r="38" fill="url(#wordGrad)"/>
    <path d="M -14 2 L -4 12 L 16 -10" stroke="#ffffff" stroke-width="5" fill="none" stroke-linecap="round" stroke-linejoin="round"/>
  </g>

  <g transform="translate(88,110)" opacity="0.9">
    <rect x="0" y="0" width="18" height="18" rx="4" fill="#f70178" opacity="0.6" transform="rotate(15)"/>
  </g>
  <g transform="translate(305,95)" opacity="0.9">
    <circle cx="0" cy="0" r="9" fill="#630db2" opacity="0.5"/>
  </g>
</svg>
